# xmcd
#
# Track frame offsets: 
#        150
#        10992
#        21238
#        32978
#        44792
#        53239
#        64755
#        79035
#        91233
#        101465
#        112291
#        122346
#        130740
#        141947
#        156126
#        166299
#        177658
#        189139
#        201093
#        212200
#        223827
#        238495
#        248643
#        257665
#        265755
#
# Disc length: 3659 seconds
#
# Revision: 2
# Processed by: cddbd v1.5.2PL0 Copyright (c) Steve Scherf et al.
# Submitted via: ExactAudioCopyFreeDBPlugin 1.0
#
DISCID=710e4919
DTITLE=Various Artist - Sweethearts and Stolen Kisses - Dancehall Days  CD 2, 2
DTITLE=014
DYEAR=2014
DGENRE=Dance Hall
TTITLE0=Chris Montez  - Let's Dance
TTITLE1=The Isley Brothers  - Shout
TTITLE2=The Mar-Keys  - Last Night
TTITLE3=Bobby Freeman  - Do You Wanna Dance?
TTITLE4=The Champs  - Tequila Twist
TTITLE5=Frankie Valli and The Four Seasons  - Sherry    MONO
TTITLE6=Lavern Baker  - Tweedle Dee
TTITLE7=Raging Storms  - The Dribble Twist
TTITLE8=Billy Joe and The Checkmates  - Percolator Twist
TTITLE9=Chubby Checker  - Limbo Rock
TTITLE10=Ike and Tina Turner  - Trackdown Twist
TTITLE11=Preston Epps  - Watusi Bongos
TTITLE12=Peter Jay and The Jaywalkers  - Can Can
TTITLE13=Paul Williams and His Hucklebuckers  - The Hucklebuck
TTITLE14=Ike and Tina Turner  - Potato Mash
TTITLE15=Chubby Checker and Bobby Rydell  - Teach Me To Twist
TTITLE16=Frank Sinatra  - Everybody's Twistin'
TTITLE17=Bobby Freeman  - (Do The) Shimmy Shimmy
TTITLE18=Jessie Hill  - Ooh Poo Pah Doo
TTITLE19=Popcorn and The Mohawks  - Shimmy Gully
TTITLE20=Jerry Lee Lewis  - I've Been Twistin'
TTITLE21=Petula Clark  - Ya Ya Twist
TTITLE22=Elvis Presley  - Rock A Hula Baby   MONO
TTITLE23=Nat Kendrick and The Swans feat James Brown  - Mashed Potatoes
TTITLE24=David Rose and His Orchestra  - The Stripper
EXTD=
EXTT0=
EXTT1=
EXTT2=
EXTT3=
EXTT4=
EXTT5=
EXTT6=
EXTT7=
EXTT8=
EXTT9=
EXTT10=
EXTT11=
EXTT12=
EXTT13=
EXTT14=
EXTT15=
EXTT16=
EXTT17=
EXTT18=
EXTT19=
EXTT20=
EXTT21=
EXTT22=
EXTT23=
EXTT24=
PLAYORDER=
